PathFileType	4	(X/Y/Z)	C:/Users/opensim2020/Desktop/walking_exp_matlab/subject02_walking08_straight_01.trc																																																																																																																									
DataRate	CameraRate	NumFrames	NumMarkers	Units	OrigDataRate	OrigDataStartFrame	OrigNumFrames																																																																																																																					
100	100	9	41	mm	100	721	324																																																																																																																					
Frame#	Time	LFHD			RFHD			LBHD			RBHD			C7			T10			CLAV			STRN			RBAK			LSHO			LUPA			LELB			LFRM			LWRA			LWRB			LFIN			RSHO			RUPA			RELB			RFRM			RWRA			RWRB			RFIN			LASI			RASI			LPSI			RPSI			LTHI			LKNE			LTIB			LANK			LHEE			LTOE			RTHI			RKNE			RTIB			RANK			RHEE			RTOE			*39			*40		
		X1	Y1	Z1	X2	Y2	Z2	X3	Y3	Z3	X4	Y4	Z4	X5	Y5	Z5	X6	Y6	Z6	X7	Y7	Z7	X8	Y8	Z8	X9	Y9	Z9	X10	Y10	Z10	X11	Y11	Z11	X12	Y12	Z12	X13	Y13	Z13	X14	Y14	Z14	X15	Y15	Z15	X16	Y16	Z16	X17	Y17	Z17	X18	Y18	Z18	X19	Y19	Z19	X20	Y20	Z20	X21	Y21	Z21	X22	Y22	Z22	X23	Y23	Z23	X24	Y24	Z24	X25	Y25	Z25	X26	Y26	Z26	X27	Y27	Z27	X28	Y28	Z28	X29	Y29	Z29	X30	Y30	Z30	X31	Y31	Z31	X32	Y32	Z32	X33	Y33	Z33	X34	Y34	Z34	X35	Y35	Z35	X36	Y36	Z36	X37	Y37	Z37	X38	Y38	Z38	X39	Y39	Z39	X40	Y40	Z40	X41	Y41	Z41
																																																																																																																												
163	1.62	-88.40577	1754.21863	-1021.40643	-103.40105	1717.52112	-882.1601	-214.0439	1677.34631	-1054.24414	-240.78818	1639.36926	-918.01941	-273.16751	1529.37341	-990.57428	-321.25598	1251.8136	-977.74683	-135.26047	1462.03748	-1013.71625	-79.88213	1291.11218	-1012.17822	-322.56506	1353.95728	-922.51569	-213.17751	1507.27209	-1177.37244	-224.19757	1304.87244	-1258.23083	-223.33746	1162.48804	-1268.43726	-199.23022	1031.82764	-1277.52625	-127.32508	915.83655	-1242.50403	-173.7301	911.20154	-1275.51941	-147.79865	849.24799	-1275.49597	-178.16763	1491.54077	-812.74323	-194.21027	1301.69348	-724.37103	-174.0974	1157.33374	-704.51605	-135.69623	1043.70251	-684.44775	-77.04833	921.96521	-701.15057	-123.24517	914.71204	-668.77124	-79.90454	857.02448	-664.13458	-101.39326	991.71826	-1135.53479	-64.4455	987.10059	-880.16516	-298.16403	1032.14612	-1023.43909	-287.39102	1035.33459	-908.56171	-138.07483	683.96143	-1201.36401	-134.95493	494.87897	-1191.54749	-266.20197	364.28497	-1165.80762	-366.6785	168.22444	-1121.13208	-393.8652	157.53586	-1059.77429	-262.67709	59.93383	-1161.6272	-122.25562	676.45343	-812.30701	-123.39156	467.00668	-861.52197	-161.49603	281.30573	-858.47247	-182.09404	90.01061	-902.22601	-221.15065	37.11242	-956.4696	-28.05865	37.48687	-903.66107	-202.23837	1804.27625	-935.71259	2845.8269	1034.25977	-3357.38647
164	1.63	-80.78321	1754.52026	-1021.01263	-95.40902	1718.15454	-881.61523	-206.49866	1677.78967	-1053.41443	-232.98116	1640.08826	-917.25714	-265.53055	1530.06995	-989.29852	-314.20105	1252.63232	-976.32513	-127.84821	1462.4762	-1012.97479	-72.82113	1291.43481	-1011.21729	-315.0524	1354.87183	-920.80804	-206.57214	1507.55103	-1176.08093	-219.7121	1305.28027	-1257.02295	-220.4563	1163.17712	-1267.75793	-198.52402	1032.047	-1277.38391	-128.72946	914.79224	-1242.83582	-175.22441	911.12457	-1275.81067	-150.29836	848.8609	-1276.58032	-169.88083	1492.34912	-811.74921	-184.55719	1302.75342	-723.05762	-164.42494	1158.48975	-703.15515	-125.61374	1044.84277	-683.27075	-65.37318	923.74158	-700.53931	-112.05032	916.07727	-667.66187	-68.56459	858.47467	-663.53558	-94.24026	993.53693	-1133.59204	-58.49982	987.04767	-878.41095	-291.45956	1033.06079	-1023.12903	-281.32077	1035.68274	-908.16992	-127.67725	685.61688	-1201.02686	-121.74335	496.23315	-1190.44812	-249.35675	361.77292	-1164.65234	-344.11722	162.57085	-1121.07751	-370.45944	150.19383	-1059.55774	-236.80618	58.10757	-1163.68701	-118.16107	676.02643	-812.27161	-120.96423	466.81265	-861.55725	-160.4548	281.32813	-858.71814	-181.81779	90.12071	-902.46442	-220.6001	36.98663	-956.82397	-27.89627	37.4819	-903.50378	-194.32709	1804.93958	-935.17529	2845.75537	1034.14441	-3357.46387
165	1.64	-72.99799	1754.94458	-1020.80756	-87.71564	1718.74292	-881.16608	-198.92984	1678.22925	-1052.80786	-225.50136	1640.5686	-916.65387	-257.90643	1530.7207	-988.229	-307.29639	1253.42859	-974.98798	-120.48361	1462.84485	-1012.28955	-65.80791	1291.68274	-1010.2713	-308.5791	1356.09717	-919.11371	-199.85938	1508.01636	-1175.63684	-215.40034	1305.72363	-1256.20251	-217.87411	1163.85034	-1267.07654	-197.84035	1032.49902	-1277.42395	-129.97215	914.03662	-1243.45251	-176.72018	911.06268	-1276.15613	-152.55737	848.45947	-1277.08728	-161.62766	1493.34216	-811.05463	-175.63618	1303.80005	-721.78601	-154.9498	1159.4032	-701.77899	-115.3486	1046.02539	-682.32611	-55.0189	925.10907	-700.17261	-101.0016	917.33295	-666.83124	-56.88099	859.91724	-663.13513	-86.99153	995.13049	-1131.62659	-52.53307	986.74768	-876.58215	-284.80466	1033.9458	-1022.94507	-275.20813	1035.95068	-907.97046	-117.41994	687.216	-1200.67163	-108.95285	497.60315	-1189.20947	-232.63733	359.13028	-1163.58447	-320.88147	156.49048	-1121.349	-346.6489	142.6019	-1059.82349	-210.44072	56.64743	-1166.5116	-114.26169	675.72522	-812.19714	-118.80151	466.50781	-861.53467	-159.43552	281.36325	-858.95532	-181.59448	90.22334	-902.78455	-220.39679	36.87891	-957.24866	-27.85533	37.41716	-903.24414	-186.48987	1805.6095	-934.84479	2845.30444	1033.99768	-3360.43506
166	1.65	-65.38084	1755.05261	-1020.58832	-79.52392	1719.17395	-880.95819	-191.42296	1678.59009	-1052.21082	-217.8438	1641.5603	-916.08264	-250.3983	1531.22791	-987.14966	-300.27985	1254.10474	-973.7536	-113.12359	1463.10571	-1011.65161	-58.7911	1291.85632	-1009.23956	-300.90448	1356.85803	-917.62372	-193.21472	1507.95776	-1174.32202	-211.16399	1306.09705	-1255.53955	-215.03752	1164.39929	-1266.58716	-197.25038	1032.87988	-1276.99036	-130.86246	913.31104	-1244.34119	-178.02844	911.20374	-1276.59424	-154.69221	848.31012	-1278.27734	-153.72234	1494.02075	-810.3302	-166.39915	1304.71338	-720.56488	-145.40608	1160.32666	-700.5072	-104.8093	1047.17749	-681.38525	-44.2244	926.42694	-699.84009	-89.76902	918.52106	-666.22168	-45.48384	861.20813	-663.1037	-79.68603	996.52673	-1129.78687	-46.65015	986.28021	-874.88586	-278.21341	1034.7417	-1022.86163	-269.14838	1036.22058	-907.76794	-107.45592	688.82666	-1200.17407	-96.51865	498.60278	-1187.69653	-216.095	356.25516	-1162.48511	-297.27771	150.12494	-1122.06726	-322.19907	134.54839	-1060.47021	-183.48308	55.24066	-1169.28076	-110.64384	675.30316	-812.25214	-116.02887	466.20676	-861.68604	-158.32529	281.36133	-859.42218	-181.25294	90.2809	-903.0791	-220.93867	37.3529	-957.52771	-27.74245	37.40199	-903.06128	-178.41948	1805.82764	-934.41974	2845.80664	1034.14587	-3357.28125
167	1.66	-57.57691	1755.2937	-1020.66553	-71.85715	1719.28894	-880.96436	-183.89445	1678.90918	-1051.83203	-209.89635	1641.86194	-915.43982	-242.91309	1531.71741	-986.15656	-293.41925	1254.84204	-972.67279	-105.78848	1463.30762	-1011.07678	-51.79964	1291.98035	-1008.27264	-293.69885	1357.73755	-916.16034	-186.57155	1507.95447	-1173.48462	-207.03079	1306.35474	-1254.7572	-212.11304	1164.58301	-1265.74597	-196.47617	1033.02856	-1276.80127	-131.72302	912.41473	-1245.13123	-179.19327	911.24225	-1276.96643	-156.72823	848.20117	-1279.62305	-145.25076	1494.79016	-809.60065	-157.0941	1305.46643	-719.32617	-135.73172	1161.1394	-699.29834	-94.69055	1048.25208	-680.62573	-33.75812	927.83331	-700.04407	-78.89323	919.56012	-665.54254	-34.1026	862.52026	-663.02271	-72.34733	997.66693	-1128.0863	-40.80138	985.60602	-873.20245	-271.74448	1035.53174	-1022.77185	-263.04233	1036.37341	-907.77502	-97.65153	690.36102	-1199.7085	-84.4898	499.95551	-1186.42993	-199.67151	353.25879	-1161.47229	-273.29477	143.60886	-1123.08923	-297.63556	126.29859	-1061.7373	-156.19365	54.06572	-1172.17065	-106.7954	674.97797	-812.38892	-113.6571	465.79758	-861.78784	-156.91995	281.35739	-859.68988	-180.94359	90.37034	-903.3587	-220.85251	37.5337	-957.7959	-27.62788	37.42198	-902.90417	-170.40814	1806.50671	-934.2691	2845.198	1034.0675	-3360.40308
168	1.67	-49.83305	1755.38599	-1020.83289	-63.79056	1719.81799	-880.89459	-176.48665	1678.9895	-1051.54419	-201.84108	1642.4425	-914.86877	-235.4061	1532.11499	-985.37146	-286.54758	1255.36426	-971.69495	-98.50125	1463.44336	-1010.54242	-44.8353	1292.01721	-1007.28625	-285.5322	1358.13696	-914.91742	-179.8614	1508.06262	-1173.20911	-202.83675	1306.60742	-1254.37854	-209.47752	1164.92041	-1265.33057	-195.63902	1033.35596	-1276.83826	-132.60118	911.48584	-1245.70081	-180.12505	911.23999	-1277.37756	-158.38625	848.02576	-1280.56946	-137.24255	1495.31372	-809.06354	-148.22404	1306.47046	-718.34955	-126.54898	1161.70703	-698.35565	-84.302	1049.18103	-679.98291	-23.01032	928.94318	-699.93762	-67.50423	920.62036	-665.07928	-22.757	863.62616	-663.06116	-65.05804	998.5567	-1126.63135	-34.8173	984.85718	-871.69354	-265.19174	1036.15894	-1022.83234	-256.92267	1036.46387	-907.85205	-88.07791	691.78497	-1199.2124	-72.74291	500.94232	-1185.06482	-183.34341	349.991	-1160.64917	-249.09872	137.06355	-1124.47119	-272.47522	117.76067	-1063.10071	-128.5929	53.18771	-1175.32996	-102.93375	674.53839	-812.51276	-111.18982	465.52817	-861.89752	-155.32838	281.34616	-860.00916	-180.5569	90.41713	-903.62488	-220.74977	37.78635	-958.08319	-27.53878	37.30605	-903.04199	-162.41963	1806.79321	-934.23816	2845.80151	1034.0625	-3357.39771
169	1.68	-42.22378	1755.12732	-1020.91223	-55.57221	1720.00232	-880.9762	-168.91772	1679.25574	-1051.2738	-194.92331	1642.90344	-915.23181	-227.95731	1532.46313	-984.60712	-279.75665	1255.86597	-970.78839	-91.22558	1463.46472	-1010.04926	-37.95023	1291.95557	-1006.30048	-278.98007	1359.03027	-913.66974	-173.16704	1507.64026	-1172.10413	-198.68637	1306.72266	-1253.72632	-206.89813	1165.29602	-1265.27332	-194.72282	1033.54431	-1276.85156	-132.89621	910.92725	-1246.51074	-180.70984	911.28082	-1277.82996	-159.66925	847.96582	-1281.62793	-129.59024	1495.89404	-808.60712	-139.22897	1306.97498	-717.38086	-116.92929	1162.47473	-697.24127	-74.11284	1049.97937	-679.32709	-12.29152	930.40332	-700.14899	-56.56528	921.50629	-664.79431	-11.34068	864.6756	-663.2605	-57.81886	999.19788	-1125.39197	-28.93507	984.13666	-870.31421	-258.63577	1036.60852	-1022.99475	-250.69611	1036.42334	-908.00128	-78.63309	693.08002	-1198.57678	-61.42472	501.77203	-1183.66675	-167.14775	346.42667	-1160.04089	-224.52837	130.55649	-1126.26379	-247.28792	109.83914	-1065.245	-100.67623	52.44669	-1178.4126	-98.99005	674.15784	-812.57037	-108.60972	465.16452	-862.20593	-153.7253	281.33636	-860.38098	-179.98126	90.52791	-903.81519	-220.77788	37.94682	-958.49298	-27.50157	37.28253	-902.77411	-154.45457	1807.32312	-934.31775	2846.08252	1034.01147	-3357.43579
170	1.69	-34.37224	1755.08899	-1021.35205	-47.56692	1720.05127	-881.16266	-161.44061	1679.29236	-1051.11487	-186.35078	1643.28052	-914.20422	-220.51881	1532.66821	-983.93488	-272.92429	1256.2428	-970.15173	-84.05057	1463.41284	-1009.60962	-31.03805	1291.75659	-1005.38464	-271.66971	1359.56055	-912.64844	-166.40463	1507.31909	-1171.54114	-194.48825	1306.97681	-1253.60486	-204.15211	1165.56152	-1265.00024	-193.72527	1033.77576	-1276.98938	-133.33777	910.25311	-1247.04675	-181.06606	911.34863	-1278.31775	-160.89081	847.7215	-1282.21411	-121.52318	1496.19141	-808.07721	-130.93105	1307.56665	-716.53668	-107.56296	1163.0415	-696.34515	-64.012	1050.57446	-678.815	-1.6394	931.34113	-700.02679	-45.43044	922.38654	-664.50262	0.61814	866.10315	-663.32288	-50.46552	999.69568	-1124.57117	-22.84214	983.3869	-869.14478	-252.08134	1036.96631	-1023.05627	-244.4796	1036.39282	-908.099	-69.3055	694.29077	-1197.92407	-50.38217	502.3779	-1182.21753	-150.9028	342.6944	-1159.85779	-199.76591	124.21671	-1128.40784	-221.18037	101.89517	-1067.54749	-72.91779	51.65462	-1181.62781	-94.96407	673.7854	-812.70984	-106.21544	464.65533	-862.74243	-152.32916	281.34018	-860.72241	-179.80577	90.62054	-904.15997	-220.4736	38.04744	-958.65765	-27.43172	37.26977	-902.65265	-146.043	1807.38794	-934.07819	2845.05469	1034.16272	-3360.19238
171	1.7	-26.64185	1754.80859	-1021.87262	-39.61761	1720.15576	-881.5401	-154.04927	1679.11243	-1051.0957	-178.59064	1643.53784	-914.00494	-213.12239	1532.8656	-983.4071	-266.11069	1256.51672	-969.57452	-76.85192	1463.26477	-1009.19885	-24.0965	1291.55481	-1004.5639	-264.36505	1359.9679	-911.77673	-159.57181	1506.9519	-1171.15771	-190.21846	1306.99011	-1252.97644	-201.30644	1165.80786	-1264.84045	-192.54651	1033.71594	-1276.97266	-133.6188	909.59674	-1247.65784	-181.35606	911.38281	-1278.79993	-162.1133	847.51971	-1282.98853	-113.81694	1496.56787	-807.72406	-122.10159	1308.22095	-715.73486	-98.28767	1163.55481	-695.56921	-54.0727	1051.49561	-678.55103	9.06832	932.59576	-700.42096	-34.6169	923.10889	-664.35834	11.46925	867.0799	-663.81097	-43.30151	999.95947	-1123.93359	-16.79501	982.71259	-868.18079	-245.39925	1037.19714	-1023.18146	-238.26714	1036.3175	-908.23676	-60.04948	695.27258	-1197.14587	-39.65888	502.80792	-1180.95703	-134.49724	338.7655	-1160.0509	-174.78941	118.17734	-1131.01917	-195.57329	94.63342	-1070.45496	-45.17217	50.81023	-1184.68188	-90.89719	673.4151	-812.74298	-104.00319	464.74881	-862.66998	-151.01607	281.3754	-861.06464	-179.49301	90.69664	-904.41711	-220.10983	38.13974	-958.94769	-27.34412	37.26817	-902.55493	-138.39108	1807.62671	-934.94806	2845.91138	1033.98352	-3357.38965
